# xmcd CD database file
#
# Track frame offsets:
#	150
#	11394
#	20714
#	38022
#	60118
#	85434
#	99486
#	124734
#	141326
#	171974
#
# Disc length: 2581 seconds
#
# Revision: 0
# Processed by: cddbd v1.5.1PL0 Copyright (c) Steve Scherf et al.
# Submitted via: CDex 1.51
#
DISCID=7a0a130a
DTITLE=Supernoah - (un) pooled track tape
DYEAR=2005
DGENRE=New Age
TTITLE0=(日曜日の朝）
TTITLE1=introduction
TTITLE2=音圧テンション
TTITLE3=パレード
TTITLE4=九月
TTITLE5=Tanaka3P
TTITLE6=I'm waiting for my girl
TTITLE7=TanakaPlayerSpecial
TTITLE8=レインコート
TTITLE9=outroduction
EXTD=YEAR: 2005
EXTT0=
EXTT1=
EXTT2=
EXTT3=
EXTT4=
EXTT5=
EXTT6=
EXTT7=
EXTT8=
EXTT9=
PLAYORDER=
